<svg width="25" height="72" viewBox="0 0 25 72" fill="none" xmlns="http://www.w3.org/2000/svg">
<path d="M22.0312 34C22.3438 34 22.5 34.1562 22.5 34.4688V35.4062C22.5 35.7188 22.3438 35.875 22.0312 35.875H21.2891L20.2344 43.6484C20.1562 44.0911 19.9349 44.4688 19.5703 44.7812C19.2318 45.0938 18.8281 45.25 18.3594 45.25H4.14062C3.67188 45.25 3.25521 45.0938 2.89062 44.7812C2.55208 44.4688 2.34375 44.0911 2.26562 43.6484L1.21094 35.875H0.46875C0.15625 35.875 0 35.7188 0 35.4062V34.4688C0 34.1562 0.15625 34 0.46875 34H3.32031L8.35938 28.0625C8.51562 27.8802 8.72396 27.776 8.98438 27.75C9.24479 27.724 9.46615 27.8021 9.64844 27.9844C9.85677 28.1406 9.97396 28.349 10 28.6094C10.026 28.8698 9.94792 29.1042 9.76562 29.3125L5.78125 34H16.7188L12.7344 29.3125C12.5521 29.1042 12.474 28.8698 12.5 28.6094C12.526 28.349 12.6302 28.1406 12.8125 27.9844C13.0208 27.8021 13.2552 27.724 13.5156 27.75C13.776 27.776 13.9844 27.8802 14.1406 28.0625L19.1797 34H22.0312ZM18.3594 43.375L19.4141 35.875H3.08594L4.14062 43.375H18.3594ZM12.1875 38.0625V41.1875C12.1875 41.4479 12.0964 41.6693 11.9141 41.8516C11.7318 42.0339 11.5104 42.125 11.25 42.125C10.9896 42.125 10.7682 42.0339 10.5859 41.8516C10.4036 41.6693 10.3125 41.4479 10.3125 41.1875V38.0625C10.3125 37.8021 10.4036 37.5807 10.5859 37.3984C10.7682 37.2161 10.9896 37.125 11.25 37.125C11.5104 37.125 11.7318 37.2161 11.9141 37.3984C12.0964 37.5807 12.1875 37.8021 12.1875 38.0625ZM16.5625 38.0625V41.1875C16.5625 41.4479 16.4714 41.6693 16.2891 41.8516C16.1068 42.0339 15.8854 42.125 15.625 42.125C15.3646 42.125 15.1432 42.0339 14.9609 41.8516C14.7786 41.6693 14.6875 41.4479 14.6875 41.1875V38.0625C14.6875 37.8021 14.7786 37.5807 14.9609 37.3984C15.1432 37.2161 15.3646 37.125 15.625 37.125C15.8854 37.125 16.1068 37.2161 16.2891 37.3984C16.4714 37.5807 16.5625 37.8021 16.5625 38.0625ZM7.8125 38.0625V41.1875C7.8125 41.4479 7.72135 41.6693 7.53906 41.8516C7.35677 42.0339 7.13542 42.125 6.875 42.125C6.61458 42.125 6.39323 42.0339 6.21094 41.8516C6.02865 41.6693 5.9375 41.4479 5.9375 41.1875V38.0625C5.9375 37.8021 6.02865 37.5807 6.21094 37.3984C6.39323 37.2161 6.61458 37.125 6.875 37.125C7.13542 37.125 7.35677 37.2161 7.53906 37.3984C7.72135 37.5807 7.8125 37.8021 7.8125 38.0625Z" fill="#485363"/>
<rect x="8" y="15" width="18" height="18" rx="9" fill="#FA4C44"/>
<rect x="8" y="15" width="18" height="18" rx="9" stroke="white" stroke-width="2"/>
<path d="M19.9766 26.6816V28H14.1406V26.875L16.9004 23.916C17.1777 23.6074 17.3965 23.3359 17.5566 23.1016C17.7168 22.8633 17.832 22.6504 17.9023 22.4629C17.9766 22.2715 18.0137 22.0898 18.0137 21.918C18.0137 21.6602 17.9707 21.4395 17.8848 21.2559C17.7988 21.0684 17.6719 20.9238 17.5039 20.8223C17.3398 20.7207 17.1367 20.6699 16.8945 20.6699C16.6367 20.6699 16.4141 20.7324 16.2266 20.8574C16.043 20.9824 15.9023 21.1562 15.8047 21.3789C15.7109 21.6016 15.6641 21.8535 15.6641 22.1348H13.9707C13.9707 21.627 14.0918 21.1621 14.334 20.7402C14.5762 20.3145 14.918 19.9766 15.3594 19.7266C15.8008 19.4727 16.3242 19.3457 16.9297 19.3457C17.5273 19.3457 18.0312 19.4434 18.4414 19.6387C18.8555 19.8301 19.168 20.1074 19.3789 20.4707C19.5938 20.8301 19.7012 21.2598 19.7012 21.7598C19.7012 22.041 19.6562 22.3164 19.5664 22.5859C19.4766 22.8516 19.3477 23.1172 19.1797 23.3828C19.0156 23.6445 18.8164 23.9102 18.582 24.1797C18.3477 24.4492 18.0879 24.7285 17.8027 25.0176L16.3203 26.6816H19.9766Z" fill="white"/>
</svg>
