<svg width="11" height="11" viewBox="0 0 11 11" fill="none" xmlns="http://www.w3.org/2000/svg">
<path d="M7.59375 5.5L10.7188 8.625C10.9062 8.8125 11 9.04167 11 9.3125C11 9.58333 10.9062 9.82292 10.7188 10.0312L10.0312 10.7188C9.82292 10.9062 9.58333 11 9.3125 11C9.04167 11 8.8125 10.9062 8.625 10.7188L5.5 7.59375L2.375 10.7188C2.1875 10.9062 1.95833 11 1.6875 11C1.41667 11 1.17708 10.9062 0.96875 10.7188L0.28125 10.0312C0.09375 9.82292 0 9.58333 0 9.3125C0 9.04167 0.09375 8.8125 0.28125 8.625L3.40625 5.5L0.28125 2.375C0.09375 2.1875 0 1.95833 0 1.6875C0 1.41667 0.09375 1.17708 0.28125 0.96875L0.96875 0.28125C1.17708 0.09375 1.41667 0 1.6875 0C1.95833 0 2.1875 0.09375 2.375 0.28125L5.5 3.40625L8.625 0.28125C8.8125 0.09375 9.04167 0 9.3125 0C9.58333 0 9.82292 0.09375 10.0312 0.28125L10.7188 0.96875C10.9062 1.17708 11 1.41667 11 1.6875C11 1.95833 10.9062 2.1875 10.7188 2.375L7.59375 5.5Z" fill="#485363"/>
</svg>
