<svg width="14" height="14" viewBox="0 0 14 14" fill="none" xmlns="http://www.w3.org/2000/svg">
<path d="M1.96875 1.99609C3.29948 0.665365 4.90365 0 6.78125 0C8.65885 0 10.2539 0.665365 11.5664 1.99609C12.8971 3.30859 13.5625 4.90365 13.5625 6.78125C13.5625 8.65885 12.8971 10.263 11.5664 11.5938C10.2539 12.9062 8.65885 13.5625 6.78125 13.5625C4.90365 13.5625 3.29948 12.9062 1.96875 11.5938C0.65625 10.263 0 8.65885 0 6.78125C0 4.90365 0.65625 3.30859 1.96875 1.99609ZM2.89844 10.6641C3.97396 11.7214 5.26823 12.25 6.78125 12.25C8.29427 12.25 9.57943 11.7214 10.6367 10.6641C11.7122 9.58854 12.25 8.29427 12.25 6.78125C12.25 5.26823 11.7122 3.98307 10.6367 2.92578C9.57943 1.85026 8.29427 1.3125 6.78125 1.3125C5.26823 1.3125 3.97396 1.85026 2.89844 2.92578C1.84115 3.98307 1.3125 5.26823 1.3125 6.78125C1.3125 8.29427 1.84115 9.58854 2.89844 10.6641ZM9.70703 5.27734C9.70703 5.69661 9.60677 6.05208 9.40625 6.34375C9.20573 6.63542 8.97786 6.84505 8.72266 6.97266C8.46745 7.10026 8.23958 7.23698 8.03906 7.38281C7.83854 7.52865 7.73828 7.67448 7.73828 7.82031V7.98438C7.73828 8.07552 7.70182 8.15755 7.62891 8.23047C7.57422 8.28516 7.5013 8.3125 7.41016 8.3125H6.15234C6.0612 8.3125 5.97917 8.28516 5.90625 8.23047C5.85156 8.15755 5.82422 8.07552 5.82422 7.98438V7.73828C5.82422 7.51953 5.86068 7.31901 5.93359 7.13672C6.00651 6.95443 6.125 6.79036 6.28906 6.64453C6.45312 6.4987 6.58073 6.39844 6.67188 6.34375C6.76302 6.27083 6.91797 6.17969 7.13672 6.07031C7.28255 5.97917 7.39193 5.91536 7.46484 5.87891C7.53776 5.82422 7.61068 5.76953 7.68359 5.71484C7.77474 5.64193 7.82943 5.56901 7.84766 5.49609C7.88411 5.42318 7.90234 5.34115 7.90234 5.25C7.90234 5.03125 7.78385 4.84896 7.54688 4.70312C7.32812 4.55729 7.08203 4.48438 6.80859 4.48438C6.60807 4.48438 6.42578 4.52083 6.26172 4.59375C6.11589 4.64844 5.98828 4.73047 5.87891 4.83984C5.76953 4.94922 5.63281 5.10417 5.46875 5.30469C5.34115 5.46875 5.19531 5.48698 5.03125 5.35938L4.26562 4.78516C4.10156 4.65755 4.07422 4.5026 4.18359 4.32031C4.85807 3.33594 5.77865 2.84375 6.94531 2.84375C7.63802 2.84375 8.26693 3.08073 8.83203 3.55469C9.41536 4.02865 9.70703 4.60286 9.70703 5.27734ZM7.57422 9.05078C7.8112 9.26953 7.92969 9.53385 7.92969 9.84375C7.92969 10.1536 7.8112 10.4271 7.57422 10.6641C7.35547 10.8828 7.09115 10.9922 6.78125 10.9922C6.47135 10.9922 6.19792 10.8828 5.96094 10.6641C5.74219 10.4271 5.63281 10.1536 5.63281 9.84375C5.63281 9.53385 5.74219 9.26953 5.96094 9.05078C6.19792 8.8138 6.47135 8.69531 6.78125 8.69531C7.09115 8.69531 7.35547 8.8138 7.57422 9.05078Z" fill="#485363"/>
</svg>
