<svg width="15" height="11" viewBox="0 0 15 11" fill="none" xmlns="http://www.w3.org/2000/svg">
<path d="M2.625 0H4.92188C5.14062 0 5.25 0.109375 5.25 0.328125V0.984375C5.25 1.20312 5.14062 1.3125 4.92188 1.3125H2.625C2.26042 1.3125 1.95052 1.4401 1.69531 1.69531C1.4401 1.95052 1.3125 2.26042 1.3125 2.625V7.875C1.3125 8.23958 1.4401 8.54948 1.69531 8.80469C1.95052 9.0599 2.26042 9.1875 2.625 9.1875H4.92188C5.14062 9.1875 5.25 9.29688 5.25 9.51562V10.1719C5.25 10.3906 5.14062 10.5 4.92188 10.5H2.625C1.89583 10.5 1.27604 10.2448 0.765625 9.73438C0.255208 9.22396 0 8.60417 0 7.875V2.625C0 1.89583 0.255208 1.27604 0.765625 0.765625C1.27604 0.255208 1.89583 0 2.625 0ZM8.94141 0.546875C9.10547 0.382812 9.26042 0.373698 9.40625 0.519531L13.8906 5.00391C14.0547 5.16797 14.0547 5.32292 13.8906 5.46875L9.40625 9.95312C9.26042 10.1172 9.10547 10.1172 8.94141 9.95312L8.42188 9.43359C8.25781 9.26953 8.25781 9.11458 8.42188 8.96875L11.5117 5.96094H4.70312C4.48438 5.96094 4.375 5.85156 4.375 5.63281V4.86719C4.375 4.64844 4.48438 4.53906 4.70312 4.53906H11.5117L8.42188 1.53125C8.25781 1.38542 8.25781 1.23047 8.42188 1.06641L8.94141 0.546875Z" fill="#485363"/>
</svg>
