<svg width="13" height="13" viewBox="0 0 13 13" fill="none" xmlns="http://www.w3.org/2000/svg">
<path d="M12.25 3.9375V11.375C12.25 11.612 12.1589 11.8125 11.9766 11.9766C11.8125 12.1589 11.612 12.25 11.375 12.25H0.875C0.638021 12.25 0.428385 12.1589 0.246094 11.9766C0.0820312 11.8125 0 11.612 0 11.375C0 7.51042 0 5.03125 0 3.9375C0 3.64583 0.0729167 3.3724 0.21875 3.11719L1.55859 0.601562C1.6862 0.200521 1.95964 0 2.37891 0H9.87109C10.2904 0 10.5638 0.200521 10.6914 0.601562L12.0312 3.11719C12.1771 3.3724 12.25 3.64583 12.25 3.9375ZM9.59766 1.3125H6.94531L7.60156 3.5H10.7734L9.59766 1.3125ZM2.65234 1.3125L1.47656 3.5H4.64844L5.30469 1.3125H2.65234ZM1.3125 10.9375H10.9375C10.9375 10.1719 10.9375 8.13021 10.9375 4.8125H7.875V6.5625C7.875 6.6901 7.82943 6.79948 7.73828 6.89062C7.66536 6.96354 7.5651 7 7.4375 7H4.8125C4.6849 7 4.57552 6.96354 4.48438 6.89062C4.41146 6.79948 4.375 6.6901 4.375 6.5625V4.8125H1.3125C1.3125 5.46875 1.3125 6.57161 1.3125 8.12109C1.3125 9.67057 1.3125 10.6094 1.3125 10.9375Z" fill="#485363"/>
</svg>
