<svg width="13" height="14" viewBox="0 0 13 14" fill="none" xmlns="http://www.w3.org/2000/svg">
<path d="M8.58594 8.3125C9.58854 8.3125 10.4453 8.67708 11.1562 9.40625C11.8854 10.1172 12.25 10.974 12.25 11.9766V12.6875C12.25 13.0521 12.1224 13.362 11.8672 13.6172C11.612 13.8724 11.3021 14 10.9375 14H1.3125C0.947917 14 0.638021 13.8724 0.382812 13.6172C0.127604 13.362 0 13.0521 0 12.6875V11.9766C0 10.974 0.355469 10.1172 1.06641 9.40625C1.79557 8.67708 2.66146 8.3125 3.66406 8.3125C3.90104 8.3125 4.2474 8.38542 4.70312 8.53125C5.17708 8.67708 5.65104 8.75 6.125 8.75C6.59896 8.75 7.07292 8.67708 7.54688 8.53125C8.02083 8.38542 8.36719 8.3125 8.58594 8.3125ZM10.9375 12.6875V11.9766C10.9375 11.3385 10.7005 10.7917 10.2266 10.3359C9.77083 9.86198 9.22396 9.625 8.58594 9.625C8.53125 9.625 8.23958 9.69792 7.71094 9.84375C7.20052 9.98958 6.67188 10.0625 6.125 10.0625C5.57812 10.0625 5.04036 9.98958 4.51172 9.84375C4.0013 9.69792 3.71875 9.625 3.66406 9.625C3.02604 9.625 2.47005 9.86198 1.99609 10.3359C1.54036 10.7917 1.3125 11.3385 1.3125 11.9766V12.6875H10.9375ZM8.91406 6.72656C8.14844 7.49219 7.21875 7.875 6.125 7.875C5.03125 7.875 4.10156 7.49219 3.33594 6.72656C2.57031 5.96094 2.1875 5.03125 2.1875 3.9375C2.1875 2.84375 2.57031 1.91406 3.33594 1.14844C4.10156 0.382812 5.03125 0 6.125 0C7.21875 0 8.14844 0.382812 8.91406 1.14844C9.67969 1.91406 10.0625 2.84375 10.0625 3.9375C10.0625 5.03125 9.67969 5.96094 8.91406 6.72656ZM7.98438 2.07812C7.47396 1.56771 6.85417 1.3125 6.125 1.3125C5.39583 1.3125 4.77604 1.56771 4.26562 2.07812C3.75521 2.58854 3.5 3.20833 3.5 3.9375C3.5 4.66667 3.75521 5.28646 4.26562 5.79688C4.77604 6.30729 5.39583 6.5625 6.125 6.5625C6.85417 6.5625 7.47396 6.30729 7.98438 5.79688C8.49479 5.28646 8.75 4.66667 8.75 3.9375C8.75 3.20833 8.49479 2.58854 7.98438 2.07812Z" fill="#485363"/>
</svg>
